<svg width="24" height="24" viewBox="0 0 24 24" fill="none" xmlns="http://www.w3.org/2000/svg">
<path d="M16.5028 8.74413L12.0007 13.1433L7.42428 8.67732C7.29278 8.5794 7.13587 8.51936 6.97127 8.50395C6.80667 8.48855 6.64098 8.51836 6.49284 8.5901C6.3447 8.66185 6.22003 8.77264 6.13294 8.90993C6.04586 9.04722 5.99981 9.20555 6 9.36705C6.00132 9.5655 6.07123 9.75768 6.19838 9.91246L11.8609 15.4432C11.8793 15.4612 11.9011 15.4755 11.9252 15.4852C11.9493 15.495 11.9751 15.5 12.0012 15.5C12.0273 15.5 12.0531 15.495 12.0772 15.4852C12.1013 15.4755 12.1232 15.4612 12.1416 15.4432L17.7555 9.95799C17.9151 9.79497 18.0029 9.57734 17.9999 9.3518C17.997 9.12625 17.9036 8.91081 17.7397 8.75182C17.5759 8.59283 17.3548 8.50297 17.1239 8.50153C16.8929 8.50009 16.6706 8.5872 16.5048 8.74413H16.5028Z" fill="#1D3557"/>
</svg>
