<svg width="21" height="13" viewBox="0 0 21 13" fill="none" xmlns="http://www.w3.org/2000/svg">
<path d="M13.7441 1.99724L18.1433 6.49928L13.6773 11.0757C13.5794 11.2072 13.5194 11.3641 13.504 11.5287C13.4885 11.6933 13.5184 11.859 13.5901 12.0072C13.6618 12.1553 13.7726 12.28 13.9099 12.3671C14.0472 12.4541 14.2056 12.5002 14.3671 12.5C14.5655 12.4987 14.7577 12.4288 14.9125 12.3016L20.4432 6.63912C20.4612 6.6207 20.4755 6.59885 20.4852 6.57477C20.495 6.55069 20.5 6.52486 20.5 6.49879C20.5 6.47273 20.495 6.4469 20.4852 6.42282C20.4755 6.39874 20.4612 6.37683 20.4432 6.35841L14.958 0.744524C14.795 0.584905 14.5773 0.497129 14.3518 0.500071C14.1263 0.503012 13.9108 0.596446 13.7518 0.760263C13.5928 0.924082 13.503 1.14518 13.5015 1.37612C13.5001 1.60705 13.5872 1.82936 13.7441 1.99524L13.7441 1.99724Z" fill="#1D3557"/>
<path d="M18.5 6.5H1" stroke="#1D3557" stroke-width="1.5" stroke-linecap="round"/>
</svg>
