<svg width="24" height="24" viewBox="0 0 24 24" fill="none" xmlns="http://www.w3.org/2000/svg">
<path fill-rule="evenodd" clip-rule="evenodd" d="M11.4408 16.398C11.3236 16.3479 11.2183 16.275 11.1313 16.1836L7.25823 12.1065C7.08701 11.9312 6.99423 11.6969 7.00028 11.4549C7.00633 11.213 7.1107 10.9833 7.29048 10.8164C7.3796 10.7333 7.4847 10.6683 7.5997 10.625C7.7147 10.5817 7.83736 10.561 7.96062 10.564C8.08388 10.567 8.2053 10.5937 8.31792 10.6426C8.43054 10.6915 8.53211 10.7616 8.61684 10.8489L11.114 13.518V3.88493C11.123 3.65447 11.2202 3.43565 11.3866 3.27164C11.553 3.10763 11.7765 3.01035 12.0129 2.99899C12.2607 2.99136 12.5016 3.0791 12.6836 3.2432C12.8656 3.4073 12.974 3.63459 12.9854 3.87595V13.281L15.3846 10.8107C15.4692 10.7235 15.5705 10.6535 15.683 10.6046C15.7954 10.5557 15.9166 10.529 16.0397 10.526C16.1628 10.523 16.2852 10.5437 16.4 10.587C16.5149 10.6303 16.6197 10.6952 16.7087 10.7782C16.8886 10.9452 16.9932 11.1748 16.9997 11.4169C17.0062 11.6589 16.9139 11.8935 16.7432 12.0695L12.7273 16.1915C12.6401 16.2792 12.5369 16.3504 12.4231 16.4015C12.3085 16.4498 12.1849 16.4746 12.0601 16.4745H11.8123C11.6844 16.474 11.5579 16.448 11.4408 16.398ZM7.87833 20.9986H16.1177C16.3469 20.9986 16.5667 20.9098 16.7288 20.7519C16.8909 20.594 16.9819 20.3798 16.9819 20.1564C16.9819 19.9331 16.8909 19.7189 16.7288 19.5609C16.5667 19.403 16.3469 19.3143 16.1177 19.3143H7.87833C7.64911 19.3143 7.42928 19.403 7.2672 19.5609C7.10512 19.7189 7.01407 19.9331 7.01407 20.1564C7.01407 20.3798 7.10512 20.594 7.2672 20.7519C7.42928 20.9098 7.64911 20.9986 7.87833 20.9986Z" fill="#222222"/>
</svg>
