<svg width="21" height="13" viewBox="0 0 21 13" fill="none" xmlns="http://www.w3.org/2000/svg">
<path d="M7.50587 1.99724L3.10669 6.49928L7.57268 11.0757C7.6706 11.2072 7.73064 11.3641 7.74605 11.5287C7.76145 11.6933 7.73164 11.859 7.6599 12.0072C7.58815 12.1553 7.47736 12.28 7.34007 12.3671C7.20278 12.4541 7.04445 12.5002 6.88295 12.5C6.6845 12.4987 6.49232 12.4288 6.33754 12.3016L0.806823 6.63912C0.788809 6.6207 0.774533 6.59885 0.764782 6.57477C0.755032 6.55069 0.75 6.52486 0.75 6.49879C0.75 6.47273 0.755032 6.4469 0.764782 6.42282C0.774533 6.39874 0.788809 6.37683 0.806823 6.35841L6.29201 0.744524C6.45503 0.584905 6.67266 0.497129 6.8982 0.500071C7.12375 0.503012 7.33919 0.596446 7.49818 0.760263C7.65717 0.924082 7.74704 1.14518 7.74847 1.37612C7.74991 1.60705 7.6628 1.82936 7.50587 1.99524L7.50587 1.99724Z" fill="#1D3557"/>
<path d="M2.75 6.5H20.25" stroke="#1D3557" stroke-width="1.5" stroke-linecap="round"/>
</svg>
