<svg width="32" height="32" viewBox="0 0 32 32" fill="none" xmlns="http://www.w3.org/2000/svg">
<g clip-path="url(#clip0_173_1290)">
<rect width="32" height="32" fill="white"/>
<path d="M9.91992 10.207V25H5.64062V10.207H9.91992ZM5.38086 6.37891C5.38086 5.75911 5.59961 5.25326 6.03711 4.86133C6.47461 4.46029 7.04883 4.25977 7.75977 4.25977C8.4707 4.25977 9.04492 4.46029 9.48242 4.86133C9.92904 5.25326 10.1523 5.75911 10.1523 6.37891C10.1523 6.98958 9.92904 7.49544 9.48242 7.89648C9.04492 8.28841 8.4707 8.48438 7.75977 8.48438C7.04883 8.48438 6.47461 8.28841 6.03711 7.89648C5.59961 7.49544 5.38086 6.98958 5.38086 6.37891ZM17.1797 13.3652V25H12.9004V10.207H16.9199L17.1797 13.3652ZM16.6191 17.084L15.5527 17.1113C15.5527 15.9993 15.6895 15.0013 15.9629 14.1172C16.2363 13.2331 16.6237 12.4811 17.125 11.8613C17.6354 11.2324 18.2415 10.7539 18.9434 10.4258C19.6543 10.0977 20.4382 9.93359 21.2949 9.93359C21.9876 9.93359 22.6211 10.0339 23.1953 10.2344C23.7695 10.4349 24.2617 10.7585 24.6719 11.2051C25.0911 11.6426 25.4102 12.2259 25.6289 12.9551C25.8477 13.6751 25.957 14.5638 25.957 15.6211V25H21.6641V15.6074C21.6641 14.9876 21.5775 14.5091 21.4043 14.1719C21.2311 13.8346 20.9759 13.5977 20.6387 13.4609C20.3105 13.3242 19.9095 13.2559 19.4355 13.2559C18.9342 13.2559 18.5059 13.3561 18.1504 13.5566C17.7949 13.748 17.5033 14.0169 17.2754 14.3633C17.0475 14.7096 16.8789 15.1152 16.7695 15.5801C16.6693 16.0449 16.6191 16.5462 16.6191 17.084Z" fill="#222222"/>
</g>
<defs>
<clipPath id="clip0_173_1290">
<rect width="32" height="32" fill="white"/>
</clipPath>
</defs>
</svg>
