<svg width="32" height="32" viewBox="0 0 32 32" fill="none" xmlns="http://www.w3.org/2000/svg">
<rect width="32" height="32" fill="white"/>
<path d="M17.4626 16.667C17.4626 20.452 14.4105 23.5203 10.6456 23.5203C6.88078 23.5203 3.82837 20.452 3.82837 16.667C3.82837 12.882 6.88054 9.81348 10.6456 9.81348C14.4107 9.81348 17.4626 12.882 17.4626 16.667Z" fill="#457B9D"/>
<path d="M24.941 16.6669C24.941 20.2296 23.4149 23.1189 21.5324 23.1189C19.6499 23.1189 18.1238 20.2296 18.1238 16.6669C18.1238 13.1042 19.6496 10.2148 21.5322 10.2148C23.4147 10.2148 24.9408 13.1032 24.9408 16.6669" fill="#457B9D"/>
<path d="M27.9999 16.6667C27.9999 19.8581 27.4633 22.4467 26.8011 22.4467C26.139 22.4467 25.6025 19.8588 25.6025 16.6667C25.6025 13.4747 26.1392 10.8867 26.8011 10.8867C27.4631 10.8867 27.9999 13.4745 27.9999 16.6667Z" fill="#457B9D"/>
</svg>
